<?xml version="1.0" encoding="UTF-8" standalone="no"?>
<!-- Created with Inkscape (http://www.inkscape.org/) -->

<svg
   width="923.63898"
   height="134.39301"
   viewBox="0 0 923.63898 134.39301"
   version="1.1"
   id="svg1"
   xmlns="http://www.w3.org/2000/svg"
   xmlns:svg="http://www.w3.org/2000/svg">
  <defs
     id="defs1" />
  <g
     id="layer1">
    <g
       id="g10"
       transform="translate(0,-1.696362e-5)"
       style="fill:rgb(233.85, 102.9, 119.1)">
      <path
         style="font-style:italic;font-size:106.667px;font-family:Georgia;-inkscape-font-specification:'Georgia Italic';white-space:pre;inline-size:748.209;stroke-width:1.73526"
         d="m 923.6392,3.0728901 -8.0436,34.7957539 h -6.2362 q -0.09,-3.163246 -0.9037,-8.04369 -0.7231,-4.880445 -2.1691,-8.766722 -1.5365,-4.157413 -4.06706,-7.139913 -2.44023,-2.982484 -5.87461,-3.524753 -2.71136,-0.361525 -6.95915,-0.5422701 -4.15741,-0.1807624 -7.77255,-0.1807624 h -5.69385 L 852.05944,113.15398 q -0.18076,0.72304 -0.27115,1.62681 -0.0904,0.81342 -0.0904,1.62683 0,2.16908 0.81341,3.61514 0.8134,1.35568 3.07287,2.44022 1.80757,0.72303 6.50725,1.80757 4.79008,0.99416 7.77256,1.08454 l -1.44605,5.96498 H 807.8643 l 1.44605,-5.96498 q 2.71136,-0.18075 7.86294,-0.72302 5.15158,-0.54229 7.50142,-1.35569 3.61514,-1.35567 5.42272,-3.70552 1.80757,-2.34984 2.53058,-5.60347 L 856.6687,9.6705335 h -4.79006 q -2.71136,0 -6.77838,0.1807624 -4.06704,0.090407 -8.31485,0.5422701 -2.98248,0.361507 -6.95913,3.615142 -3.97667,3.163246 -7.95332,7.501421 -3.7959,4.247785 -6.86878,8.676332 -3.07287,4.338175 -4.79005,7.682183 h -6.32651 l 8.04369,-34.7957539 z"
         id="path10" />
      <path
         style="font-style:italic;font-size:106.667px;font-family:Georgia;-inkscape-font-specification:'Georgia Italic';white-space:pre;inline-size:748.209;stroke-width:1.73526"
         d="M 806.49731,3.0728901 799.3574,33.982366 h -6.77839 q -0.54227,-9.580126 -4.06704,-16.08738 -3.43438,-6.507254 -9.30899,-7.411048 -2.71135,-0.361507 -6.59763,-0.5422696 -3.88628,-0.1807624 -8.76672,-0.1807624 h -20.60632 l -11.83959,51.606166 h 14.46057 q 6.68801,0 10.39353,-1.265301 3.70553,-1.355675 6.59764,-4.428548 2.71135,-2.711365 5.24195,-7.411048 2.53061,-4.790054 3.61515,-8.04369 h 6.77839 L 766.9115,90.378587 h -6.68801 q 0,-0.994166 0.0904,-2.349841 0.18077,-1.446064 0.18077,-3.072873 0,-3.344008 -0.4519,-6.416881 -0.4519,-3.072873 -1.2653,-4.51892 -1.89795,-3.52477 -5.42272,-4.609309 -3.52477,-1.08454 -9.21862,-1.08454 h -14.46057 l -8.94746,39.133907 q -0.54227,2.1691 -0.9038,4.69969 -0.36151,2.5306 -0.36151,3.97666 0,4.97082 3.52477,6.59763 3.61515,1.62683 15.81625,1.62683 15.1836,0 20.6063,-1.08456 5.42271,-1.08454 8.04371,-3.16325 5.15158,-4.15741 12.02034,-13.28564 6.95915,-9.128244 9.30899,-13.285657 h 6.50725 L 784.17383,131.32007 H 677.70788 l 1.35569,-5.96498 q 2.80174,-0.18075 7.41103,-0.72302 4.60931,-0.63266 6.23612,-1.2653 3.16326,-1.17493 4.79007,-3.52477 1.7172,-2.34984 2.34984,-5.51309 l 21.5101,-93.089916 q 0.18076,-0.723032 0.27113,-1.626826 0.18076,-0.903777 0.18076,-1.717182 0,-1.807571 -0.8134,-3.253635 -0.72303,-1.446047 -2.71137,-2.440214 -2.16907,-1.174929 -6.14572,-2.078706 -3.97667,-0.9037946 -6.23612,-1.084557 l 1.35567,-5.9649839 z"
         id="path9" />
      <path
         style="font-style:italic;font-size:106.667px;font-family:Georgia;-inkscape-font-specification:'Georgia Italic';white-space:pre;inline-size:748.209;stroke-width:1.73526"
         d="M 686.31757,93.180326 674.8395,131.32007 H 574.60967 l 1.35569,-5.96498 q 2.25945,-0.18075 6.41686,-0.63265 4.15741,-0.45189 6.05538,-1.17493 3.25361,-1.2653 4.88044,-3.61514 1.71718,-2.44021 2.34984,-5.60346 L 617.0876,21.600501 q 0.18075,-0.813404 0.27114,-1.626809 0.18074,-0.903794 0.18074,-1.717199 0,-1.807571 -0.8134,-3.253618 -0.72303,-1.536436 -2.71135,-2.620993 -1.80757,-1.084539 -5.33234,-2.078706 -3.43438,-0.9941671 -5.87461,-1.265302 l 1.35569,-5.9649839 h 54.13675 l -1.35567,5.9649839 q -2.07871,0.090407 -6.05538,0.8134219 -3.88627,0.6326421 -6.86876,1.5364361 -3.52477,1.174912 -5.15158,3.795888 -1.62681,2.620976 -2.34984,5.513104 l -20.06405,87.034546 q -0.72303,3.16325 -1.17491,5.60348 -0.36152,2.34984 -0.36152,3.88627 0,4.97082 3.97666,6.23612 4.06703,1.2653 14.73171,1.2653 5.96498,0 13.55678,-0.99416 7.68218,-1.08454 10.66466,-3.79591 4.60931,-4.06702 11.56846,-12.56261 7.04953,-8.585958 10.48393,-14.189434 z"
         id="path8" />
      <path
         style="font-style:italic;font-size:106.667px;font-family:Georgia;-inkscape-font-specification:'Georgia Italic';white-space:pre;inline-size:748.209;stroke-width:1.73526"
         d="m 593.21936,3.0728901 -7.13992,30.9094759 h -6.77838 q -0.54227,-9.580126 -4.06704,-16.08738 -3.43439,-6.507254 -9.309,-7.411048 -2.71135,-0.361507 -6.59762,-0.5422696 -3.88628,-0.1807624 -8.76673,-0.1807624 h -20.60631 l -11.8396,51.606166 h 14.46057 q 6.68802,0 10.39355,-1.265301 3.70552,-1.355675 6.59763,-4.428548 2.71136,-2.711365 5.24195,-7.411048 2.5306,-4.790054 3.61514,-8.04369 h 6.77841 l -11.56846,50.160102 h -6.68802 q 0,-0.994166 0.0904,-2.349841 0.18076,-1.446064 0.18076,-3.072873 0,-3.344008 -0.4519,-6.416881 -0.45189,-3.072873 -1.2653,-4.51892 -1.89794,-3.52477 -5.42271,-4.609309 -3.52475,-1.08454 -9.2186,-1.08454 h -14.46057 l -8.94749,39.133907 q -0.54227,2.1691 -0.90378,4.69969 -0.36152,2.5306 -0.36152,3.97666 0,4.97082 3.52477,6.59763 3.61514,1.62683 15.81624,1.62683 15.18361,0 20.60632,-1.08456 5.42272,-1.08454 8.04369,-3.16325 5.15158,-4.15741 12.02034,-13.28564 6.95915,-9.128244 9.30899,-13.285657 h 6.50728 L 570.89589,131.32007 H 464.42991 l 1.35567,-5.96498 q 2.80174,-0.18075 7.41105,-0.72302 4.60929,-0.63266 6.23612,-1.2653 3.16324,-1.17493 4.79005,-3.52477 1.7172,-2.34984 2.34984,-5.51309 l 21.51012,-93.089916 q 0.18074,-0.723032 0.27113,-1.626826 0.18075,-0.903777 0.18075,-1.717182 0,-1.807571 -0.81341,-3.253635 -0.72303,-1.446047 -2.71135,-2.440214 -2.16909,-1.174929 -6.14574,-2.078706 -3.97665,-0.9037946 -6.23612,-1.084557 l 1.35567,-5.9649839 z"
         id="path7" />
      <path
         id="path5"
         style="font-style:italic;font-size:106.667px;font-family:Georgia;-inkscape-font-specification:'Georgia Italic';white-space:pre;inline-size:748.209;stroke-width:1.73526"
         d="m 464.11845,53.413755 q 3.70552,-5.332342 5.24196,-11.297326 1.53643,-6.055356 1.53643,-11.297308 0,-4.157413 -1.17493,-7.862945 -1.08454,-3.705516 -3.79588,-6.688016 -2.71137,-2.892111 -6.95916,-4.51892 -4.2478,-1.717199 -10.66466,-1.717199 h -11.74922 l -13.1049,57.300015 h 10.21279 q 10.48392,0 18.07571,-3.43438 7.59179,-3.52477 12.38186,-10.483921 z M 493.0396,28.92116 q 0,10.935818 -4.88045,19.521778 -4.79007,8.58596 -12.38186,14.279809 -7.95332,5.964984 -17.80458,9.037857 -9.85126,2.9825 -20.60632,2.9825 h -15.63548 l -9.21862,39.585806 q -0.18076,0.81341 -0.27114,1.71718 -0.0904,0.9038 -0.0904,1.53644 0,1.98833 0.72303,3.52477 0.72301,1.53644 2.89211,2.44021 1.35567,0.63266 5.42271,1.17493 4.15742,0.54227 7.41103,0.63265 l -1.35567,5.96498 h -55.04055 l 1.35569,-5.96498 q 2.25946,-0.18075 6.41687,-0.63265 4.15741,-0.45189 6.05537,-1.17493 3.25362,-1.2653 4.88045,-3.61514 1.71718,-2.44021 2.34984,-5.60346 l 21.60046,-93.451441 q 0.18077,-0.813404 0.27114,-1.807571 0.18076,-0.994167 0.18076,-1.897944 0,-1.897944 -0.72303,-3.43438 -0.72303,-1.536437 -2.71135,-2.349842 -2.89211,-1.084556 -6.14575,-1.626826 -3.25363,-0.5422696 -5.96498,-0.723032 l 1.35568,-5.9649839 h 57.02888 q 15.45473,0 25.12523,6.9591509 9.76089,6.868778 9.76089,18.889119 z" />
      <path
         id="path3"
         style="font-style:italic;font-size:106.667px;font-family:Georgia;-inkscape-font-specification:'Georgia Italic';white-space:pre;inline-size:748.209;stroke-width:1.73526"
         d="m 358.2885,100.68175 q 6.41688,-11.20694 9.85126,-25.306004 3.43438,-14.099046 3.43438,-28.19811 0,-18.075714 -7.68218,-28.83077 -7.68217,-10.7550387 -22.59463,-10.7550387 -11.56846,0 -21.5101,6.8687607 -9.94165,6.868779 -17.35268,20.154421 -6.41688,11.658833 -9.67052,25.667524 -3.16324,14.008674 -3.16324,26.390539 0,18.979488 7.77255,29.553788 7.86295,10.57429 22.41389,10.57429 12.38187,0 22.23313,-7.41105 9.85126,-7.41103 16.26814,-18.70835 z m 34.5246,-48.262162 q 0,17.171937 -6.32649,32.355523 -6.32651,15.093231 -16.53928,25.848269 -10.48392,11.02619 -23.95032,17.44307 -13.37603,6.32649 -27.74621,6.32649 -22.41389,0 -36.15143,-14.55094 -13.73754,-14.55094 -13.73754,-37.32634 0,-17.533445 6.32649,-32.536286 6.32651,-15.093231 16.4489,-26.029032 Q 301.35001,12.833779 314.90679,6.4168981 328.55395,1.696362e-5 342.92414,1.696362e-5 q 22.05238,0 35.97066,14.27982603638 13.9183,14.189437 13.9183,38.139745 z" />
      <path
         style="font-style:italic;font-size:106.667px;font-family:Georgia;-inkscape-font-specification:'Georgia Italic';white-space:pre;inline-size:748.209;stroke-width:1.73526"
         d="M 266.97152,93.180326 255.49345,131.32007 H 155.26362 l 1.35569,-5.96498 q 2.25945,-0.18075 6.41686,-0.63265 4.15743,-0.45189 6.05537,-1.17493 3.25362,-1.2653 4.88045,-3.61514 1.71718,-2.44021 2.34984,-5.60346 l 21.41972,-92.728409 q 0.18075,-0.813404 0.27114,-1.626809 0.18074,-0.903794 0.18074,-1.717199 0,-1.807571 -0.8134,-3.253618 -0.72303,-1.536436 -2.71135,-2.620993 -1.80757,-1.084539 -5.33234,-2.078706 -3.43438,-0.9941671 -5.87461,-1.265302 l 1.35569,-5.9649839 h 54.13675 L 237.5985,9.037874 q -2.07871,0.090407 -6.05538,0.8134219 -3.88628,0.6326421 -6.86876,1.5364361 -3.52477,1.174912 -5.15158,3.795888 -1.62681,2.620976 -2.34984,5.513104 l -20.06405,87.034546 q -0.72303,3.16325 -1.17491,5.60348 -0.36152,2.34984 -0.36152,3.88627 0,4.97082 3.97666,6.23612 4.06703,1.2653 14.73171,1.2653 5.96498,0 13.55678,-0.99416 7.68218,-1.08454 10.66466,-3.79591 4.60931,-4.06702 11.56846,-12.56261 7.04953,-8.585958 10.48392,-14.189434 z"
         id="path2" />
      <path
         style="font-style:italic;font-size:106.667px;font-family:Georgia;-inkscape-font-specification:'Georgia Italic';white-space:pre;inline-size:748.209;stroke-width:1.73526"
         d="m 175.87331,3.0728901 -1.35568,5.9649839 q -2.80174,0.090407 -7.32066,0.8134219 -4.51893,0.7230151 -6.68801,1.3556741 -3.79591,1.174912 -5.42272,3.615143 -1.62682,2.440214 -2.34984,5.332324 l -21.69085,93.722583 q -0.18077,0.63264 -0.27114,1.44606 -0.0904,0.8134 -0.0904,1.44605 0,2.0787 0.9038,3.52477 0.90377,1.44604 3.25362,2.5306 1.35569,0.63264 5.96498,1.53644 4.60931,0.8134 6.86878,0.99415 l -1.35568,5.96498 H 88.56762 l 1.35569,-5.96498 q 2.53059,-0.18075 7.23029,-0.54227 4.69968,-0.36151 6.68799,-1.08454 3.52477,-1.2653 5.33235,-3.43438 1.80757,-2.25947 2.44023,-5.42272 l 21.60046,-93.812948 q 0.18077,-0.813405 0.27114,-1.626809 0.0904,-0.813422 0.0904,-1.626827 0,-1.807571 -0.81341,-3.163245 -0.72301,-1.355675 -3.16324,-2.440214 -2.44022,-1.084557 -6.68802,-1.988334 -4.15741,-0.9941666 -6.14575,-1.174929 l 1.3557,-5.9649839 z"
         id="path1" />
      <path
         style="font-style:italic;font-size:106.667px;font-family:Georgia;-inkscape-font-specification:'Georgia Italic';white-space:pre;inline-size:748.209"
         d="m 215.2338,672.35149 q -6.40627,0 -11.25003,-1.56251 -4.79168,-1.61459 -7.76044,-3.69793 l -2.96876,3.8021 h -4.16668 l 5.10418,-25.31258 h 4.21876 q 0.26042,4.53126 1.19793,8.48961 0.98958,3.95834 3.17709,7.13544 2.18751,3.28126 5.6771,5.10418 3.48959,1.77084 8.64586,1.77084 7.76044,0 12.44796,-4.27085 4.68751,-4.32293 4.68751,-11.77087 0,-4.01043 -1.97917,-7.13544 -1.97918,-3.12501 -5.93752,-4.84376 -3.75001,-1.61459 -7.44794,-2.86459 -3.64585,-1.30209 -7.18752,-3.02085 -4.68752,-2.23959 -7.55211,-6.40627 -2.86459,-4.21876 -2.86459,-9.47919 0,-5.00002 2.1875,-9.21878 2.23959,-4.21876 5.88544,-7.29169 3.54168,-2.96876 8.54169,-4.7396 5.0521,-1.77084 10.00003,-1.77084 4.63543,0 8.75003,1.09376 4.16668,1.09375 8.33336,4.11459 l 2.86459,-3.54168 h 4.16668 l -5.26043,24.53133 h -4.21876 q -0.15625,-4.01043 -0.83334,-8.28128 -0.625,-4.27084 -2.18751,-7.08335 -1.71875,-3.07293 -4.79168,-4.79168 -3.07292,-1.77084 -8.17711,-1.77084 -6.14585,0 -10.31253,4.27085 -4.16668,4.21876 -4.16668,10.05211 0,3.85418 1.51042,6.56252 1.56251,2.65626 4.79168,4.32293 3.43751,1.77084 7.18753,3.07293 3.80209,1.25 6.77085,2.65626 5.9896,2.8125 9.32295,6.77085 3.38542,3.95835 3.38542,9.68753 0,5.52085 -2.39584,10.31253 -2.39584,4.79168 -6.40627,8.02086 -4.21876,3.43751 -9.47919,5.26043 -5.20835,1.82293 -11.51046,1.82293 z"
         transform="matrix(1.735263,0,0,1.735263,-328.11722,-1032.7656)"
         id="text1" />
    </g>
  </g>
</svg>
